PathFileType	4	(X/Y/Z)	C:\Users\Basilio\Documents\Thesis Gigler\squatting_fais\c3dfiles\039\SJ_pre3\markers_experimental.trc
DataRate	CameraRate	NumFrames	NumMarkers	Units	OrigDataRate	OrigDataStartFrame	OrigNumFrames
200.000000	200.000000	4	63	mm	200.000000	220	1760
Frame#	Time	FHD			LBHD			RBHD			C7			T10			CLAV			LSHO			LUUPA			LMUPA			LDUPA			LLEP			LMEP			LRAD			LUL			LRFIN			RSHO			RUPA1			RMUPA			RDUPA			RLEP			RMEP			RRAD			RUL			RUFIN			LASI			RASI			USACR			LSACR			RSACR			LTHI1			LTHI2			LTHI3			LTHI4			LLFC			LMFC			LTIB1			LTIB2			LTIB3			LTIB4			LLMAL			LMMAL			LHEE			LMT1			LMT2			LMT5			RTHI			RTHI2			RTHI3			RTHI4			RLFC			RMFC			RTIB1			RTIB2			RTIB3			RTIB4			RLMAL			RMMAL			RHEE			RMT1			RMT2			RMT5			*61			*62			
		X1	Y1	Z1	X2	Y2	Z2	X3	Y3	Z3	X4	Y4	Z4	X5	Y5	Z5	X6	Y6	Z6	X7	Y7	Z7	X8	Y8	Z8	X9	Y9	Z9	X10	Y10	Z10	X11	Y11	Z11	X12	Y12	Z12	X13	Y13	Z13	X14	Y14	Z14	X15	Y15	Z15	X16	Y16	Z16	X17	Y17	Z17	X18	Y18	Z18	X19	Y19	Z19	X20	Y20	Z20	X21	Y21	Z21	X22	Y22	Z22	X23	Y23	Z23	X24	Y24	Z24	X25	Y25	Z25	X26	Y26	Z26	X27	Y27	Z27	X28	Y28	Z28	X29	Y29	Z29	X30	Y30	Z30	X31	Y31	Z31	X32	Y32	Z32	X33	Y33	Z33	X34	Y34	Z34	X35	Y35	Z35	X36	Y36	Z36	X37	Y37	Z37	X38	Y38	Z38	X39	Y39	Z39	X40	Y40	Z40	X41	Y41	Z41	X42	Y42	Z42	X43	Y43	Z43	X44	Y44	Z44	X45	Y45	Z45	X46	Y46	Z46	X47	Y47	Z47	X48	Y48	Z48	X49	Y49	Z49	X50	Y50	Z50	X51	Y51	Z51	X52	Y52	Z52	X53	Y53	Z53	X54	Y54	Z54	X55	Y55	Z55	X56	Y56	Z56	X57	Y57	Z57	X58	Y58	Z58	X59	Y59	Z59	X60	Y60	Z60	X61	Y61	Z61	X62	Y62	Z62	X63	Y63	Z63	

221	1.1	-252.9995574951172	1767.421875	-828.8037719726565	-389.5735778808595	1687.638793945313	-951.0132446289065	-370.9166259765626	1704.500122070313	-812.3094482421877	-406.7691345214845	1552.972045898438	-885.572204589844	-417.9064331054689	1236.929443359375	-886.449157714844	-264.0132751464844	1480.563232421875	-888.0443115234377	-332.6582641601563	1525.537353515625	-1075.359375	-431.2412109375001	1387.095458984375	-1227.978881835938	-394.5746459960939	1353.8115234375	-1234.697021484375	-437.1643981933595	1332.402099609375	-1271.312133789063	-434.2061767578126	1266.881713867188	-1301.268920898438	-506.2156677246095	1247.60791015625	-1251.41943359375	-394.7562866210939	1034.36474609375	-1126.554077148438	-347.7459106445313	1018.47705078125	-1184.666625976563	-339.7662048339844	1045.534545898438	-1081.966430664063	-301.1145935058594	1526.49658203125	-694.7666625976564	-418.1406250000001	1410.3427734375	-542.8507690429689	-386.5872802734376	1373.498291015625	-528.8608398437501	-435.3286743164064	1360.2392578125	-496.8198242187501	-430.3901977539064	1296.135864257813	-464.7442016601564	-505.5702514648439	1280.6240234375	-511.8575439453126	-372.2109069824219	1093.036376953125	-673.6034545898439	-358.6535034179688	1046.039794921875	-614.9426269531251	-314.7098083496094	1069.808715820313	-717.2712402343751	-262.0746459960938	1042.779541015625	-1003.860046386719	-260.0699157714844	1031.112915039063	-784.0899658203127	-438.3419494628907	1112.8544921875	-886.2327270507815	-446.0427246093751	1082.818725585938	-915.3946533203127	-448.7717895507814	1081.949951171875	-857.269470214844	-305.4917297363282	773.5799560546877	-1095.99169921875	-261.0815734863282	701.4230346679689	-1104.685302734375	-213.8605194091797	711.6213989257814	-1098.000732421875	-278.5811767578126	644.3532104492189	-1092.251953125	-259.6469116210938	525.5181884765626	-1097.727783203125	-220.6298980712891	497.5239868164064	-985.7711181640627	-211.6670074462891	375.3467407226563	-1082.248168945313	-282.5935363769532	343.9766845703126	-1122.93115234375	-243.6030426025391	335.5688781738282	-1106.980712890625	-254.6481475830079	254.3024597167969	-1067.9404296875	-342.7296752929688	99.33147430419925	-1102.858032226563	-318.5377502441407	93.8936004638672	-1018.37255859375	-410.0571899414064	41.32116699218751	-1061.68505859375	-175.4026489257813	56.55882263183595	-1069.556274414063	-185.9175872802735	56.20785140991212	-1112.297973632813	-234.8406677246094	32.13339233398438	-1159.362060546875	-290.5959777832032	774.0574951171877	-690.6320800781251	-240.9757537841797	729.8320312500001	-680.4690551757814	-210.1014862060547	738.4275512695314	-686.2911376953126	-251.8459014892579	643.9799804687501	-684.0761718750001	-258.2391662597657	506.3438110351564	-697.1271362304689	-212.1842193603516	490.2518920898439	-804.645446777344	-237.2251739501954	296.7774963378907	-696.9661254882814	-327.8365173339844	239.8450012207032	-690.7131347656251	-282.7796020507813	227.4855957031251	-688.3785400390626	-266.8815917968751	175.1484832763672	-713.1453857421876	-342.9680175781251	91.43896484375001	-691.2720947265626	-305.3925781250001	98.755241394043	-773.9127197265627	-405.9700927734376	39.8592643737793	-744.2103271484376	-172.4144592285157	51.60828399658205	-714.7609252929689	-184.1652526855469	59.06905364990236	-670.5548706054689	-242.6516571044922	31.79391860961915	-625.9582519531251	nan	nan	nan	nan	nan	nan	
222	1.105	-253.1817321777344	1767.250366210938	-829.085144042969	-390.1373901367189	1687.670288085938	-951.287536621094	-370.9404602050782	1704.524291992188	-812.3566894531252	-406.7281799316407	1552.968505859375	-885.6270751953127	-417.8487548828126	1236.920776367188	-886.4870605468752	-264.0299682617188	1480.488891601563	-888.1238403320315	-332.6822509765626	1525.482055664063	-1075.3994140625	-431.1403198242189	1387.101806640625	-1228.100708007813	-394.5142211914064	1353.797729492188	-1234.748046875	-437.1641540527345	1332.360961914063	-1271.3330078125	-434.2350463867189	1266.906127929688	-1301.268798828125	-505.6914978027345	1247.01953125	-1251.377075195313	-394.788299560547	1034.321533203125	-1126.541259765625	-347.7373352050782	1018.4384765625	-1184.66845703125	-339.7391967773438	1045.4677734375	-1081.978759765625	-301.0418395996094	1526.518920898438	-694.8201293945314	-418.1427307128907	1410.366821289063	-542.8733520507814	-386.5233459472657	1373.529174804688	-528.8753662109376	-435.2863769531251	1360.269653320313	-496.8506774902345	-430.3955383300782	1296.149291992188	-464.7585449218751	-505.529022216797	1280.618286132813	-511.8488159179689	-372.2173461914063	1093.047119140625	-673.6024169921876	-358.6042480468751	1046.05419921875	-614.8948364257814	-314.7122802734376	1069.7509765625	-717.2839965820314	-262.0900573730469	1042.731079101563	-1003.864868164063	-260.0840759277344	1031.103393554688	-784.0940551757815	-438.276580810547	1112.883911132813	-886.2709960937502	-446.1505432128907	1082.868041992188	-915.3957519531252	-448.8265075683595	1081.962036132813	-857.2884521484377	-305.5401916503907	773.5644531250002	-1095.952026367188	-261.1313171386719	701.4312133789064	-1104.709350585938	-213.6856536865235	711.4827880859376	-1097.961059570313	-278.5868835449219	644.3557739257814	-1092.252319335938	-259.6279296875001	525.5070190429689	-1097.717895507813	-220.6486511230469	497.5394592285157	-985.7736816406252	-211.6524353027344	375.2935180664063	-1082.274291992188	-282.5547790527344	343.9997253417969	-1122.88671875	-243.5649719238282	335.5379333496094	-1106.997314453125	-254.6553039550782	254.3102264404297	-1067.945678710938	-342.7107849121094	99.33123016357425	-1102.868896484375	-318.5999755859376	93.96707153320314	-1018.380920410156	-410.0790405273439	41.25594711303712	-1061.693725585938	-175.4204559326172	56.57912445068361	-1069.567993164063	-185.9554443359375	56.23389053344728	-1112.329956054688	-234.3731079101563	31.75304031372071	-1159.36279296875	-290.6220092773438	774.040466308594	-690.6016235351564	-240.9159851074219	729.9248046875001	-680.4182128906251	-210.1291046142579	738.4582519531251	-686.2733154296876	-251.8772277832032	643.9454345703126	-684.0485229492189	-258.2218933105469	506.338592529297	-697.0529785156251	-212.1891326904297	490.2266845703126	-804.6353149414065	-237.2332763671876	296.8065185546876	-696.9605102539064	-327.8219299316407	239.841049194336	-690.7042236328126	-282.7672729492188	227.5379333496094	-688.3937377929689	-266.9199829101563	175.1636962890625	-713.0966796875001	-343.0214233398438	91.45777893066408	-691.2537231445314	-305.4126892089844	98.74676513671878	-773.9578857421877	-405.9952087402345	39.83715057373048	-744.2026977539064	-172.3919219970703	51.60020828247072	-714.7534179687501	-184.1281890869141	59.11259841918947	-670.5362548828126	-242.6412200927735	31.78586578369141	-625.9384765625001	nan	nan	nan	nan	nan	nan	
223	1.11	-252.9720153808594	1767.47607421875	-828.9873046875002	-389.3325500488282	1687.584228515625	-951.2454833984377	-370.9161376953126	1704.521118164063	-812.4132080078127	-406.7427978515626	1552.993774414063	-885.644470214844	-417.8229980468751	1236.923095703125	-886.463073730469	-263.9996337890626	1480.467651367188	-888.1406250000002	-332.7171936035157	1525.387573242188	-1075.410034179688	-431.2543334960939	1387.052490234375	-1228.019287109375	-394.4724731445314	1353.69384765625	-1234.743896484375	-437.1370849609376	1332.30859375	-1271.345581054688	-434.3262939453126	1266.760375976563	-1301.289184570313	-505.7085266113282	1246.987915039063	-1251.380004882813	-394.7515258789064	1034.28564453125	-1126.532592773438	-347.7089233398438	1018.367370605469	-1184.670288085938	-339.7179565429688	1045.4873046875	-1081.981079101563	-301.0317382812501	1526.501831054688	-694.8334350585939	-418.0899047851564	1410.401611328125	-542.8926391601564	-386.506561279297	1373.492065429688	-528.8583374023439	-435.2467041015626	1360.292602539063	-496.8511047363282	-430.331024169922	1296.15625	-464.8122863769532	-505.4718017578126	1280.682739257813	-511.8468322753907	-372.2086486816407	1093.045776367188	-673.5830688476564	-358.5903930664063	1046.08740234375	-614.8951416015626	-314.7151794433594	1069.78125	-717.2708129882814	-262.1442565917969	1042.717651367188	-1003.880615234375	-260.1396484375001	1031.070190429688	-784.091979980469	-438.295623779297	1112.924072265625	-886.2653808593752	-446.0493469238282	1082.874877929688	-915.4382324218752	-448.780487060547	1082.017333984375	-857.242858886719	-305.5272216796876	773.5530395507815	-1095.953491210938	-261.1246948242188	701.4295043945314	-1104.697631835938	-213.8368530273438	711.5803833007814	-1097.982788085938	-278.6022338867188	644.3435058593751	-1092.264282226563	-259.6294860839844	525.5263671875001	-1097.739013671875	-220.6288452148438	497.5349731445314	-985.7427368164065	-211.6717681884766	375.2829589843751	-1082.288940429688	-282.4113464355469	344.1235046386719	-1122.921020507813	-243.5654907226563	335.5088806152344	-1107.010009765625	-254.6152954101563	254.2955169677735	-1067.940307617188	-342.7073364257813	99.32348632812503	-1102.894165039063	-318.6090087890626	93.96956634521486	-1018.318420410156	-410.0198669433595	41.26990127563477	-1061.712768554688	-175.4237060546875	56.55062103271486	-1069.561157226563	-185.9403686523438	56.22919082641603	-1112.326171875	-234.7703552246094	32.06328964233399	-1159.34375	-290.6250915527344	774.0400390625002	-690.5905151367189	-240.9351501464844	729.8950805664064	-680.4243164062501	-210.1701812744141	738.4362792968751	-686.2325439453126	-251.8791046142579	643.9517822265626	-684.0237426757814	-258.2206420898438	506.355194091797	-697.0640869140626	-212.1740875244141	490.2386169433595	-804.645202636719	-237.2199401855469	296.7733764648438	-696.9333496093751	-327.8702392578126	239.8230438232422	-690.6864624023439	-282.8218688964844	227.5354003906251	-688.3717041015626	-266.8768005371094	175.1735382080078	-713.0433959960939	-343.0112915039063	91.44337463378908	-691.2678833007814	-305.3725891113282	98.75469207763675	-773.8951416015627	-406.0104064941407	39.84913635253907	-744.2310180664064	-172.435775756836	51.59011459350587	-714.7587280273439	-184.1316375732422	59.14976882934572	-670.5311889648439	-242.6550598144532	31.80856323242188	-625.9116210937501	nan	nan	nan	nan	nan	nan	
224	1.115	-253.1380157470704	1767.33203125	-829.2673339843752	-389.192352294922	1687.529052734375	-951.3594970703127	-370.9258728027344	1704.536987304688	-812.4405517578127	-406.7499084472657	1553.000610351563	-885.6658935546877	-417.6699218750001	1236.960571289063	-886.5012817382815	-263.9954528808594	1480.479125976563	-888.1695556640627	-332.6986083984376	1525.385498046875	-1075.46923828125	-431.0945434570314	1387.066162109375	-1228.117065429688	-394.4730529785157	1353.665161132813	-1234.75830078125	-437.1595458984376	1332.251831054688	-1271.359985351563	-434.3020324707032	1266.721557617188	-1301.294921875	-505.6804199218751	1246.94580078125	-1251.377197265625	-394.6876525878907	1034.2421875	-1126.5439453125	-347.6674194335938	1018.349975585938	-1184.697509765625	-339.6709899902344	1045.428100585938	-1081.97216796875	-301.0140991210938	1526.556762695313	-694.8386840820314	-418.0220336914064	1410.392578125	-542.8975219726564	-386.4529113769532	1373.550048828125	-528.8958740234376	-435.2032775878907	1360.3056640625	-496.8932495117189	-430.3067626953126	1296.158569335938	-464.7817993164064	-505.4711303710939	1280.684692382813	-511.8515930175782	-372.1859436035157	1093.0625	-673.5747680664064	-358.5931396484376	1046.06787109375	-614.8872070312501	-314.7106018066407	1069.765869140625	-717.2711791992189	-262.0276794433594	1042.7216796875	-1003.906860351563	-260.1630249023438	1031.071899414063	-784.1065063476565	-438.3454895019532	1112.89208984375	-886.2380371093752	-446.0631713867189	1082.87158203125	-915.4377441406252	-448.7634887695314	1082.007934570313	-857.2764282226565	-305.5621948242188	773.5823974609377	-1095.947631835938	-261.1260986328126	701.4070434570314	-1104.68115234375	-213.8685607910157	711.5819091796876	-1097.982177734375	-278.6158752441407	644.3206787109376	-1092.257446289063	-259.6341857910157	525.5338745117189	-1097.76953125	-220.5700378417969	497.4546203613282	-985.7644653320315	-211.6453552246094	375.2878723144532	-1082.306640625	-282.6002807617188	343.9372863769532	-1122.893676757813	-243.6060638427735	335.5837097167969	-1106.97998046875	-254.6351623535157	254.3402252197266	-1067.948486328125	-342.7134399414063	99.33903503417972	-1102.86474609375	-318.5551757812501	93.89123535156251	-1018.406799316406	-410.0920410156251	41.27412414550782	-1061.695556640625	-175.4496765136719	56.51425170898439	-1069.530883789063	-185.8969421386719	56.1904754638672	-1112.318725585938	-234.3439331054688	31.7224464416504	-1159.401977539063	-290.6892089843751	774.0286865234377	-690.5838623046876	-240.9209594726563	729.9511108398439	-680.3763427734376	-210.1646575927735	738.4440917968751	-686.2092895507814	-251.9093322753907	643.9614868164064	-684.0128173828126	-258.2773437500001	506.366424560547	-697.0766601562501	-212.1753997802735	490.2790832519532	-804.5864868164065	-237.2249908447266	296.7851562500001	-696.9287719726564	-327.8350219726563	239.8772888183594	-690.6757812500001	-282.8065490722657	227.518295288086	-688.3585815429689	-266.9381103515626	175.1436157226563	-713.0839843750001	-342.9761657714844	91.4414520263672	-691.2750854492189	-305.4063415527344	98.76420593261722	-773.913024902344	-405.9718322753907	39.83777618408204	-744.2011718750001	-172.3973999023438	51.638484954834	-714.7329101562501	-184.1587524414063	59.13547134399415	-670.5424194335939	-242.6181640625001	31.79221343994141	-625.9069213867189	nan	nan	nan	nan	nan	nan	
